<?xml version="1.0" encoding="UTF-8" standalone="no"?>
<!-- Created with Inkscape (http://www.inkscape.org/) -->

<svg
   xmlns:dc="http://purl.org/dc/elements/1.1/"
   xmlns:cc="http://creativecommons.org/ns#"
   xmlns:rdf="http://www.w3.org/1999/02/22-rdf-syntax-ns#"
   xmlns:svg="http://www.w3.org/2000/svg"
   xmlns="http://www.w3.org/2000/svg"
   xmlns:sodipodi="http://sodipodi.sourceforge.net/DTD/sodipodi-0.dtd"
   xmlns:inkscape="http://www.inkscape.org/namespaces/inkscape"
   width="416"
   height="109.43944"
   id="svg2"
   version="1.1"
   inkscape:version="0.48.4 r9939"
   sodipodi:docname="symb_trs.svg"
   inkscape:export-filename="/home/pmeier/Workspace/WIFvassal/res/symbols/symb_cx.png"
   inkscape:export-xdpi="12.980769"
   inkscape:export-ydpi="12.980769">
  <defs
     id="defs4" />
  <sodipodi:namedview
     id="base"
     pagecolor="#ffffff"
     bordercolor="#666666"
     borderopacity="1.0"
     inkscape:pageopacity="0.0"
     inkscape:pageshadow="2"
     inkscape:zoom="1.979899"
     inkscape:cx="171.01684"
     inkscape:cy="35.220778"
     inkscape:document-units="px"
     inkscape:current-layer="layer1"
     showgrid="false"
     fit-margin-top="0"
     fit-margin-left="0"
     fit-margin-right="0"
     fit-margin-bottom="0"
     inkscape:window-width="1680"
     inkscape:window-height="992"
     inkscape:window-x="-2"
     inkscape:window-y="-3"
     inkscape:window-maximized="1" />
  <metadata
     id="metadata7">
    <rdf:RDF>
      <cc:Work
         rdf:about="">
        <dc:format>image/svg+xml</dc:format>
        <dc:type
           rdf:resource="http://purl.org/dc/dcmitype/StillImage" />
        <dc:title></dc:title>
      </cc:Work>
    </rdf:RDF>
  </metadata>
  <g
     inkscape:label="Layer 1"
     inkscape:groupmode="layer"
     id="layer1"
     transform="translate(118.66241,-229.84895)">
    <path
       style="fill:#918f8f;fill-opacity:1;stroke:#ffffff;stroke-width:3;stroke-miterlimit:4;stroke-opacity:1;stroke-dasharray:none"
       d="m -106.04985,335.99871 c -1.58027,-2.95275 -11.11256,-27.16546 -11.11256,-28.22669 0,-0.63443 22.365833,-0.98363 62.999997,-0.98363 l 62.9999961,0 0,-15.5 0,-15.5 8.4999999,0 8.5,0 0,15.5 0,15.5 11.5,0 11.5,0 0,-15.5 0,-15.5 9,0 9,0 0,15.5 0,15.5 51.636467,0 51.63647,0 -0.62379,-10.25 c -0.34308,-5.6375 -0.92183,-20.06868 -1.28611,-32.06929 l -0.66233,-21.81928 3.89964,0.31928 3.89965,0.31929 0.87092,22.29575 c 0.479,12.26266 0.96982,22.16266 1.09071,22 0.12089,-0.16266 5.31051,-12.44575 11.53249,-27.29575 6.22198,-14.85 11.84579,-27.58606 12.49735,-28.30235 1.59386,-1.75221 6.50853,0.40906 6.50853,2.86219 0,0.95635 -6.525,17.19128 -14.5,36.07764 -7.975,18.88635 -14.5,34.68166 -14.5,35.10067 0,0.41902 4.5,0.76185 10,0.76185 l 10,0 0,-5.5 0,-5.5 16.5,0 16.5,0 0,5.5 0,5.5 32,0 32,0 -0.007,3.25 c -0.004,1.7875 -0.90066,8.425 -1.99337,14.75 -1.09271,6.325 -1.98972,11.8375 -1.99337,12.25 -0.004,0.4125 -89.3158,0.75 -198.471449,0.75 -189.667099,0 -198.507261,-0.0793 -199.422611,-1.78968 z"
       id="path3007"
       inkscape:connector-curvature="0"
       sodipodi:nodetypes="csscccccccccccccccccsscccssssssssccccccccccscscc" />
  </g>
</svg>
