<?xml version="1.0" encoding="UTF-8" standalone="no"?>
<!-- Created with Inkscape (http://www.inkscape.org/) -->

<svg
   xmlns:dc="http://purl.org/dc/elements/1.1/"
   xmlns:cc="http://creativecommons.org/ns#"
   xmlns:rdf="http://www.w3.org/1999/02/22-rdf-syntax-ns#"
   xmlns:svg="http://www.w3.org/2000/svg"
   xmlns="http://www.w3.org/2000/svg"
   xmlns:sodipodi="http://sodipodi.sourceforge.net/DTD/sodipodi-0.dtd"
   xmlns:inkscape="http://www.inkscape.org/namespaces/inkscape"
   width="458.88571"
   height="134"
   id="svg2"
   version="1.1"
   inkscape:version="0.48.4 r9939"
   sodipodi:docname="symb_bb.svg"
   inkscape:export-filename="/home/pmeier/Workspace/WIFvassal/res/symbols/symb_bb.png"
   inkscape:export-xdpi="11.77"
   inkscape:export-ydpi="11.77">
  <defs
     id="defs4" />
  <sodipodi:namedview
     id="base"
     pagecolor="#ffffff"
     bordercolor="#666666"
     borderopacity="1.0"
     inkscape:pageopacity="0.0"
     inkscape:pageshadow="2"
     inkscape:zoom="1.4"
     inkscape:cx="229.40903"
     inkscape:cy="160.62057"
     inkscape:document-units="px"
     inkscape:current-layer="layer1"
     showgrid="false"
     fit-margin-top="0"
     fit-margin-left="0"
     fit-margin-right="0"
     fit-margin-bottom="0"
     inkscape:window-width="1680"
     inkscape:window-height="992"
     inkscape:window-x="-2"
     inkscape:window-y="-3"
     inkscape:window-maximized="1" />
  <metadata
     id="metadata7">
    <rdf:RDF>
      <cc:Work
         rdf:about="">
        <dc:format>image/svg+xml</dc:format>
        <dc:type
           rdf:resource="http://purl.org/dc/dcmitype/StillImage" />
        <dc:title></dc:title>
      </cc:Work>
    </rdf:RDF>
  </metadata>
  <g
     inkscape:label="Layer 1"
     inkscape:groupmode="layer"
     id="layer1"
     transform="translate(-203.83775,-377.31128)">
    <path
       style="fill:#000000"
       d="m 214.82997,498.11725 c -5.71642,-7.25306 -10.615,-14.03443 -10.88574,-15.06974 -0.46921,-1.79428 0.11073,-1.85338 12.39349,-1.26306 20.48368,0.98447 98.04743,3.5381 103.72652,3.41499 l 5.15922,-0.11184 -5,-0.89662 c -2.75,-0.49314 -8.0375,-1.38347 -11.75,-1.97851 -6.19438,-0.99284 -6.75,-1.28282 -6.75,-3.52293 0,-1.34256 0.66097,-2.69467 1.46882,-3.00467 0.80785,-0.31 7.99033,0.52901 15.96105,1.86447 8.10696,1.35829 15.06015,2.0678 15.78118,1.61034 0.70892,-0.44978 7.82016,-1.25469 15.78895,-0.93354 32.67177,1.31671 14.37557,-0.92761 3.75,-2.34712 -5.02381,-0.67115 -4.47315,-0.64248 -3.73469,-2.36305 2.24325,-5.22666 -0.81912,-5.45377 18.54858,-1.36981 9.21657,1.94345 17.03111,3.45012 17.23044,4.04812 0.24352,0.73054 1.30476,0.6 3.23439,-0.39785 3.77425,-1.95174 28.18145,-2.1446 29.75935,-0.23515 0.56813,0.6875 1.35396,2.96764 1.7463,5.06697 l 0.71334,3.81698 4.12615,-0.68122 c 2.26937,-0.37466 4.25472,-0.79588 4.41186,-0.93603 0.15715,-0.14015 0.60715,-3.80124 1,-8.13576 l 0.71428,-7.88094 6.09972,-0.29382 6.09972,-0.29381 0.64573,-11.20619 c 0.35515,-6.1634 0.65393,-14.35618 0.66394,-18.20618 0.0295,-11.35885 0.12419,-11.5 7.71226,-11.5 l 6.4881,0 7.39527,6.21959 7.39526,6.21958 0.19367,15.03042 c 0.18575,14.41635 0.21639,14.62186 0.75,5.03041 l 0.55633,-10 11.75,-0.28174 11.75,-0.28173 0,-34.96827 0,-34.96826 3.5,0 3.5,0 0,47 0,47 13.27754,0 13.27754,0 5.32806,6.05299 c 3.1247,3.54984 5.98878,5.92574 6.92578,5.74529 0.96438,-0.18572 2.03092,-2.08962 2.69057,-4.80298 l 1.09286,-4.4953 11.95383,-0.30961 c 9.40039,-0.24347 12.59464,0.0271 14.95382,1.26666 2.81399,1.47852 3.83706,1.39281 16.5,-1.38238 7.425,-1.62725 13.8756,-2.58665 14.33466,-2.13199 0.45907,0.45466 0.68407,1.87433 0.5,3.15483 -0.29817,2.07431 -1.34393,2.54059 -9.5905,4.27616 -5.09072,1.07139 -9.05192,2.1519 -8.80269,2.40114 0.51977,0.51976 51.39167,-1.62194 56.30853,-2.37059 1.7875,-0.27216 3.25,-1.00911 3.25,-1.63765 0,-2.48913 -4.67385,-7.73264 -10.16319,-11.40191 -5.48027,-3.66321 -7.40343,-6.36466 -4.53098,-6.36466 0.7182,0 4.06656,0.93231 7.44079,2.07181 7.24146,2.44548 14.60417,8.49083 16.4044,13.46928 0.79554,2.20003 1.90555,3.45891 3.04987,3.45891 0.98951,0 1.79911,0.47632 1.79911,1.05849 0,1.28755 -5.67451,24.15503 -7.11973,28.69151 l -1.03537,3.25 -214.67245,-0.003 -214.67245,-0.003 -10.39349,-13.18736 z m 163.3117,-11.41296 c 0.92998,-0.35686 1.58179,-1.78045 1.58179,-3.45469 0,-2.51153 -0.44267,-2.92237 -3.75,-3.48033 -2.0625,-0.34794 -4.5375,-0.84866 -5.5,-1.1127 -2.03543,-0.55837 -2.0961,-0.1317 -0.69742,4.90471 0.89446,3.22081 1.4466,3.75 3.91264,3.75 1.57916,0 3.58301,-0.27314 4.45299,-0.60699 z"
       id="path3840"
       inkscape:connector-curvature="0"
       sodipodi:nodetypes="cssscsssssssssscssscscscccssscccsscccccccccccssscsssssscsssssssssccccccsssssc" />
  </g>
</svg>
