<?xml version="1.0" encoding="UTF-8" standalone="no"?>
<!-- Created with Inkscape (http://www.inkscape.org/) -->

<svg
   xmlns:dc="http://purl.org/dc/elements/1.1/"
   xmlns:cc="http://creativecommons.org/ns#"
   xmlns:rdf="http://www.w3.org/1999/02/22-rdf-syntax-ns#"
   xmlns:svg="http://www.w3.org/2000/svg"
   xmlns="http://www.w3.org/2000/svg"
   xmlns:sodipodi="http://sodipodi.sourceforge.net/DTD/sodipodi-0.dtd"
   xmlns:inkscape="http://www.inkscape.org/namespaces/inkscape"
   width="281.85339"
   height="115.84366"
   id="svg3036"
   version="1.1"
   inkscape:version="0.48.4 r9939"
   sodipodi:docname="symb_amph.svg"
   inkscape:export-filename="/home/pmeier/Workspace/WIFvassal/res/symbols/symb_amph.png"
   inkscape:export-xdpi="17.562323"
   inkscape:export-ydpi="17.562323">
  <defs
     id="defs3038" />
  <sodipodi:namedview
     id="base"
     pagecolor="#ffffff"
     bordercolor="#666666"
     borderopacity="1.0"
     inkscape:pageopacity="0.0"
     inkscape:pageshadow="2"
     inkscape:zoom="2.8"
     inkscape:cx="173.05937"
     inkscape:cy="92.405152"
     inkscape:document-units="px"
     inkscape:current-layer="layer1"
     showgrid="false"
     inkscape:window-width="1680"
     inkscape:window-height="992"
     inkscape:window-x="-2"
     inkscape:window-y="-3"
     inkscape:window-maximized="1"
     fit-margin-top="0"
     fit-margin-left="0"
     fit-margin-right="0"
     fit-margin-bottom="0" />
  <metadata
     id="metadata3041">
    <rdf:RDF>
      <cc:Work
         rdf:about="">
        <dc:format>image/svg+xml</dc:format>
        <dc:type
           rdf:resource="http://purl.org/dc/dcmitype/StillImage" />
        <dc:title></dc:title>
      </cc:Work>
    </rdf:RDF>
  </metadata>
  <g
     inkscape:label="Layer 1"
     inkscape:groupmode="layer"
     id="layer1"
     transform="translate(-70.57143,-494.61234)">
    <g
       id="g3855">
      <g
         id="g3850">
        <path
           style="fill:#000000;fill-opacity:1"
           d="m 93.07143,609.33061 c -8.378295,-2.67087 -14.463932,-7.50852 -17.807378,-14.15562 -2.224348,-4.42223 -4.692622,-14.60014 -4.692622,-19.35001 0,-3.42986 0.32702,-4.10565 1.986752,-4.10565 1.092713,0 17.343248,2.25 36.112298,5 18.76905,2.75 37.22502,5 41.01325,5 l 6.8877,0 0,-10 0,-10 8,0 8,0 0.20355,10.25 0.20354,10.25 0.3369,-8.25 0.33689,-8.25 6.45956,0 6.45956,0 0,8 0,8 11,0 11,0 0,-10 0,-10 8,0 8,0 0.20355,10.25 0.20354,10.25 0.3369,-8.25 0.33689,-8.25 5.95956,0 5.95956,0 0,8 0,8 6.5,0 6.5,0 0,-11.5 0,-11.5 8.89159,0 c 8.39591,0 9.29205,-0.28571 9.29205,-0.28571 3.80625,-24.17032 0.004,0.0408 3.86439,-24.67727 l 3.19608,-20.46298 -2.12206,-1.40899 c -1.54208,-1.0239 -1.70455,-1.10179 -1.70455,-1.10179 0,-1.79935 -0.0297,-3.86705 -0.0297,-4.68757 3.86201,2.36898 0.0661,0.0253 3.86205,2.39607 0,0 -0.1506,-8.88403 -0.24992,-13.87875 0,0 0.3225,0.009 6.96784,0.0439 0,0 0.022,0.006 0.022,10.77805 0,5.18515 -0.0834,6.88583 -0.0834,6.88583 3.92127,2.93127 -0.009,0.0618 3.94138,2.93987 0,0 -0.15095,1.30941 -0.15095,4.58609 l -4.01098,-2.73903 c 0,0 0.13099,-1.3945 0.1616,0.50549 0.0484,3.00597 4.08388,13.07517 8.85596,34.35686 l 1.51358,6.75 9.8915,0 9.8915,0 0,11.5 0,11.5 18.87756,0 c 22.5474,0 21.85966,-0.33916 20.32188,10.02173 -1.31146,8.83605 -3.61202,12.80975 -9.25056,15.97827 l -4.44888,2.5 -120.5,0.19321 c -95.3385,0.15286 -121.335237,-0.0731 -124.5,-1.08193 z"
           id="path3055"
           inkscape:connector-curvature="0"
           sodipodi:nodetypes="cssssscccccccccccccccccccccccccccccccssscssccccccsccsscccccssscscc" />
        <path
           transform="matrix(0.10995536,0,0,0.38446325,248.86375,345.13828)"
           style="fill:#ffffff;fill-opacity:1;fill-rule:nonzero;stroke:none"
           inkscape:transform-center-y="-4.9404805"
           d="m 256.63071,554.80379 -30.56434,0 31.52253,-52.48504 z"
           id="path3829"
           inkscape:connector-curvature="0"
           sodipodi:nodetypes="cccc" />
        <path
           style="fill:#ffffff;fill-opacity:1;fill-rule:nonzero;stroke:none"
           inkscape:transform-center-y="-4.9404805"
           d="m 283.64018,558.4336 3.36071,0 -3.46607,-20.17857 z"
           id="path3829-2"
           inkscape:connector-curvature="0"
           sodipodi:nodetypes="cccc" />
      </g>
    </g>
  </g>
</svg>
