<?xml version="1.0" encoding="UTF-8" standalone="no"?>
<!-- Created with Inkscape (http://www.inkscape.org/) -->

<svg
   xmlns:dc="http://purl.org/dc/elements/1.1/"
   xmlns:cc="http://creativecommons.org/ns#"
   xmlns:rdf="http://www.w3.org/1999/02/22-rdf-syntax-ns#"
   xmlns:svg="http://www.w3.org/2000/svg"
   xmlns="http://www.w3.org/2000/svg"
   xmlns:sodipodi="http://sodipodi.sourceforge.net/DTD/sodipodi-0.dtd"
   xmlns:inkscape="http://www.inkscape.org/namespaces/inkscape"
   width="363.8764"
   height="236.97299"
   id="svg2"
   version="1.1"
   inkscape:version="0.48.4 r9939"
   sodipodi:docname="symb_vweap.svg"
   inkscape:export-filename="/home/pmeier/Workspace/WIFvassal/res/symbols/symb_vweap.png"
   inkscape:export-xdpi="14.840204"
   inkscape:export-ydpi="14.840204">
  <defs
     id="defs4" />
  <sodipodi:namedview
     id="base"
     pagecolor="#ffffff"
     bordercolor="#666666"
     borderopacity="1.0"
     inkscape:pageopacity="0.0"
     inkscape:pageshadow="2"
     inkscape:zoom="0.98994949"
     inkscape:cx="455.8056"
     inkscape:cy="87.534945"
     inkscape:document-units="px"
     inkscape:current-layer="layer1"
     showgrid="false"
     inkscape:window-width="1680"
     inkscape:window-height="992"
     inkscape:window-x="-2"
     inkscape:window-y="-3"
     inkscape:window-maximized="1"
     fit-margin-top="0"
     fit-margin-left="0"
     fit-margin-right="0"
     fit-margin-bottom="0" />
  <metadata
     id="metadata7">
    <rdf:RDF>
      <cc:Work
         rdf:about="">
        <dc:format>image/svg+xml</dc:format>
        <dc:type
           rdf:resource="http://purl.org/dc/dcmitype/StillImage" />
        <dc:title></dc:title>
      </cc:Work>
    </rdf:RDF>
  </metadata>
  <g
     inkscape:label="Layer 1"
     inkscape:groupmode="layer"
     id="layer1"
     transform="translate(-270.87159,-399.60349)">
    <path
       style="fill:#000000"
       d="m 284.0607,629.55792 c -1.78335,-10.39971 -1.56124,-13.96438 1.04645,-16.79422 l 2.25,-2.44168 -3.20034,1.62723 c -4.50568,2.29094 -7.99288,2.02492 -10.84512,-0.82732 -2.42015,-2.42015 -3.08008,-5.75174 -1.80005,-9.08744 1.14335,-2.97954 53.9743,-47.44451 80.58448,-67.82363 18.29686,-14.01245 29.15571,-20.63438 33.8369,-20.63438 6.36554,0 11.79249,5.93037 14.33584,15.66569 l 1.08829,4.1657 10.10885,-8.62345 10.10885,-8.62345 -20.35885,-13.47904 c -11.19737,-7.41347 -20.35885,-14.12169 -20.35885,-14.90715 0,-0.78546 4.61025,-6.6639 10.24501,-13.0632 27.25118,-30.94874 42.69137,-44.1351 51.67874,-44.1351 2.57642,0 4.48455,1.67054 13.42115,11.75 5.72975,6.4625 13.22234,15.125 16.65021,19.25 3.42788,4.125 6.59648,7.6384 7.04135,7.80755 0.44486,0.16915 6.28444,-3.53697 12.97684,-8.23583 52.94265,-37.17208 100.99755,-59.52399 131.7367,-61.27505 12.18336,-0.69403 12.06621,-0.87671 6.56827,10.24235 -11.94427,24.15611 -49.23331,60.20443 -101.06727,97.70446 l -13.13396,9.50195 4.94148,6.13232 c 6.98436,8.66751 6.8168,10.79078 -1.47782,18.72622 -7.3632,7.04435 -26.52152,17.39603 -32.19563,17.39603 -2.27201,0 -5.66135,-1.60928 -11.20673,-5.32101 -7.78593,-5.21142 -7.99835,-5.28568 -10.314,-3.60543 -8.61064,6.24792 -52.60231,31.95798 -85.94765,50.23039 -6.01888,3.2982 -6.54786,3.84899 -6.16988,6.42428 0.53134,3.62031 -1.0808,5.0533 -11.61897,10.32783 -8.0235,4.01589 -8.61299,4.15489 -14.98989,3.53478 -6.27395,-0.6101 -7.25802,-0.39572 -17.94564,3.9096 -12.82355,5.16574 -23.03929,7.82705 -26.60738,6.93152 -1.64451,-0.41275 -3.85024,0.22525 -6.84363,1.9795 -2.44755,1.43435 -5.95914,2.58854 -7.87561,2.58854 l -3.45859,0 z m 13.87092,-3.52353 c 3.44663,-1.94815 6.83386,-4.31065 7.52718,-5.25 1.0929,-1.48075 0.90396,-1.79193 -1.42054,-2.3396 -1.47461,-0.34742 -5.49361,-0.68492 -8.93111,-0.75 -5.8529,-0.11079 -6.2493,0.0246 -6.23899,2.13169 0.0193,3.94718 1.22377,9.75 2.02377,9.75 0.4252,0 3.59306,-1.59394 7.03969,-3.54209 z m -0.0745,-10.81824 c 5.225,0.0483 7.3625,-0.10056 4.75,-0.33074 3.28254,-15.52998 25.17611,-23.72967 -13,-2.01886 -2.3375,2.11454 -3.575,3.48849 -2.75,3.05322 0.825,-0.43527 5.775,-0.7519 11,-0.70362 z m 39.13316,-4.44432 c 3.98014,-2.09256 7.38467,-4.2488 7.56561,-4.79164 0.18559,-0.55676 -5.27763,-1.77912 -12.53352,-2.80428 l -12.86251,-1.8173 -4.90137,3.74301 c -2.69575,2.05865 -6.43459,4.47017 -8.30854,5.35893 l -3.40718,1.61593 9.40718,1.11005 c 15.98772,1.88657 17.05484,1.78366 25.04033,-2.4147 z m -52.13316,-6.19535 c 6.64949,-3.35665 9.17347,-3.70083 11,-1.5 1.70782,2.0578 1.88186,2.0049 7.64086,-2.32232 2.79787,-2.10228 6.43076,-4.37892 8.0731,-5.0592 2.36585,-0.97997 2.89324,-1.72243 2.53917,-3.57462 18.54121,-20.43734 46.12589,-26.57491 72.03239,-50.57528 l 7.21448,-6.78912 -3.13805,-3.33973 c -1.72592,-1.83685 -3.92065,-4.91473 -4.87717,-6.83973 -0.95652,-1.925 -1.8746,-3.6552 -2.04017,-3.84488 -1.92569,-2.20614 -66.38123,48.50704 -102.3669,80.54158 -2.69407,2.39827 -4.1365,4.39916 -3.69099,5.12002 0.97415,1.5762 0.81825,1.6134 7.61328,-1.81672 z m 113,-20.3057 c 55.86789,-30.82524 124.3076,-76.48907 167.5,-111.75808 17.13079,-13.98825 41.92682,-38.51679 50.33629,-49.79327 6.63353,-8.89509 10.68377,-15.95622 9.71063,-16.92937 -1.16081,-1.1608 -18.61551,2.89413 -31.72507,7.37011 -27.61689,9.42918 -65.92475,30.7056 -102.37912,56.86198 -8.26587,5.77052 -8.13501,3.73851 -2.2695,11.37952 2.65472,3.45833 4.82677,7.24535 4.82677,8.41561 0,11.40636 -30.39733,36.17213 -47.02296,38.31126 -4.02168,0.51744 -5.23986,0.1218 -11.97704,-3.89002 -6.15143,-3.66301 -7.76971,-4.24544 -9,-3.23914 -15.55714,12.72479 -51.45696,44.57119 -73.84064,65.50337 l -12.34064,11.54038 7.68732,1.37571 7.68731,1.3757 -0.39319,3.36804 -0.3932,3.36804 14.54652,-7.62972 c 8.00059,-4.19634 21.07152,-11.22989 29.04652,-15.63012 z m -51.15128,-1.35032 c 35.14217,-28.56239 -7.28706,-3.04916 -23.14772,7.8712 -3.22107,2.29099 -3.09583,3.93816 0.37314,4.90756 6.76024,1.88914 7.45727,1.49804 22.77458,-12.77876 z m 152.24574,-34.09397 c 9.45183,-4.74383 18.68941,-11.1844 20.81204,-14.51045 0.92824,-1.45449 0.40678,-2.67104 -3.00044,-7 -2.26816,-2.88175 -4.48087,-5.37487 -4.91714,-5.54027 -0.90111,-0.34161 -34.87524,22.4207 -35.16462,23.55994 -0.23615,0.92963 10.10998,8.24078 11.66166,8.24078 0.6294,0 5.40323,-2.1375 10.6085,-4.75 z M 451.2769,520.52063 c 10.99255,-4.11284 29.58275,-18.35801 34.64339,-26.54631 2.6789,-3.44112 1.79998,-3.88851 -0.66087,-7.11485 -4.14773,-5.43795 -21.82719,-26.65567 -30.40227,-36.48679 l -7.5,-8.59856 -1.89224,3.65118 c -4.18996,8.08477 -23.31859,23.62337 -45.03084,36.57954 -5.26731,3.14311 -9.57692,5.85919 -9.57692,6.03574 0,0.93925 52.71965,34.53591 54.19352,34.53591 0.4023,0 3.2041,-0.92514 6.22623,-2.05586 z m -36.41975,-55.50575 c 12.10069,-8.5218 20.42479,-15.85453 23.82438,-20.98697 4.2361,-6.39534 4.21532,-8.03069 -0.0744,-5.85257 -6.73454,3.4195 -18.86371,14.30365 -32.11186,28.81566 -7.79241,8.53581 -7.94697,8.79538 -3.63814,6.1101 2.475,-1.54243 7.875,-5.18123 12,-8.08622 z"
       id="path2996"
       inkscape:connector-curvature="0"
       sodipodi:nodetypes="sscsssssscccssssssssssscssssssssssssscsssssssssccssscscsscsssssscccsssssssssssccssssscccccssccscsssccsssccscssssscsssscc" />
  </g>
</svg>
