<?xml version="1.0" encoding="UTF-8" standalone="no"?>
<!-- Created with Inkscape (http://www.inkscape.org/) -->

<svg
   xmlns:dc="http://purl.org/dc/elements/1.1/"
   xmlns:cc="http://creativecommons.org/ns#"
   xmlns:rdf="http://www.w3.org/1999/02/22-rdf-syntax-ns#"
   xmlns:svg="http://www.w3.org/2000/svg"
   xmlns="http://www.w3.org/2000/svg"
   xmlns:sodipodi="http://sodipodi.sourceforge.net/DTD/sodipodi-0.dtd"
   xmlns:inkscape="http://www.inkscape.org/namespaces/inkscape"
   width="560"
   height="143.5"
   id="svg2"
   version="1.1"
   inkscape:version="0.48.4 r9939"
   sodipodi:docname="symb_cv.svg"
   inkscape:export-filename="/home/pmeier/Workspace/WIFvassal/res/symbols/symb_cv.png"
   inkscape:export-xdpi="9.6400003"
   inkscape:export-ydpi="9.6400003">
  <defs
     id="defs4" />
  <sodipodi:namedview
     id="base"
     pagecolor="#ffffff"
     bordercolor="#666666"
     borderopacity="1.0"
     inkscape:pageopacity="0.0"
     inkscape:pageshadow="2"
     inkscape:zoom="1.4"
     inkscape:cx="339.1827"
     inkscape:cy="6.15048"
     inkscape:document-units="px"
     inkscape:current-layer="layer1"
     showgrid="false"
     fit-margin-top="0"
     fit-margin-left="0"
     fit-margin-right="0"
     fit-margin-bottom="0"
     inkscape:window-width="1680"
     inkscape:window-height="992"
     inkscape:window-x="-2"
     inkscape:window-y="-3"
     inkscape:window-maximized="1" />
  <metadata
     id="metadata7">
    <rdf:RDF>
      <cc:Work
         rdf:about="">
        <dc:format>image/svg+xml</dc:format>
        <dc:type
           rdf:resource="http://purl.org/dc/dcmitype/StillImage" />
        <dc:title></dc:title>
      </cc:Work>
    </rdf:RDF>
  </metadata>
  <g
     inkscape:label="Layer 1"
     inkscape:groupmode="layer"
     id="layer1"
     transform="translate(31.367112,-512.2121)">
    <path
       style="fill:#ffffff;fill-opacity:1;stroke:#000000;stroke-opacity:1"
       d="m -19.246529,637.15178 c -6.666321,-10.20817 -12.120583,-19.20817 -12.120583,-20 0,-1.10525 1.509919,-1.43968 6.5,-1.43968 l 6.5,0 0,-16 0,-16 c 3,0 6,0 8.9999995,0 l 0,16 0,16 93.9692205,0 93.969212,0 0.28078,-12.25 0.28078,-12.25 22.25,-0.26913 22.25,-0.26913 0,-10.35588 0,-10.35587 13.75,-5.9273 13.75,-5.9273 0.5,-22.94769 0.5,-22.9477 4.5,0 4.5,0 0.26856,23.5 0.26856,23.5 11.98144,7.76707 11.98144,7.76707 0,7.96037 0,7.96037 18.25,0.27256 18.25,0.27256 -0.225,11.25 -0.225,11.25 93.94961,0 93.9496,0 0.2754,-15.75 0.27539,-15.75 4.5,0 4.5,0 0.5,16 0.5,16 4.25,6.19513 c 2.3375,3.40732 4.25,6.61211 4.25,7.12176 0,1.28558 -10.10067,25.39579 -11.28329,26.93311 -0.76495,0.99437 -54.49251,1.25 -262.71857,1.25 l -261.7569665,0 z"
       id="path3009"
       inkscape:connector-curvature="0"
       sodipodi:nodetypes="sssccccccccccccccccccccccccccccccccccccccsssscs" />
  </g>
</svg>
