<?xml version="1.0" encoding="UTF-8" standalone="no"?>
<!-- Created with Inkscape (http://www.inkscape.org/) -->

<svg
   xmlns:dc="http://purl.org/dc/elements/1.1/"
   xmlns:cc="http://creativecommons.org/ns#"
   xmlns:rdf="http://www.w3.org/1999/02/22-rdf-syntax-ns#"
   xmlns:svg="http://www.w3.org/2000/svg"
   xmlns="http://www.w3.org/2000/svg"
   xmlns:sodipodi="http://sodipodi.sourceforge.net/DTD/sodipodi-0.dtd"
   xmlns:inkscape="http://www.inkscape.org/namespaces/inkscape"
   width="1338.4369"
   height="3973.6716"
   id="svg2"
   version="1.1"
   inkscape:version="0.48.3.1 r9886"
   sodipodi:docname="New document 1">
  <defs
     id="defs4">
    <clipPath
       id="clipPath3095"
       clipPathUnits="userSpaceOnUse">
      <path
         id="path3097"
         clip-rule="evenodd"
         d="m 56.7,56.8 481.8,0 0,3.5 -481.8,0 0,-3.5 z"
         inkscape:connector-curvature="0" />
    </clipPath>
    <clipPath
       id="clipPath3077"
       clipPathUnits="userSpaceOnUse">
      <path
         id="path3079"
         clip-rule="evenodd"
         d="m 56.7,781.7 481.8,0 0,3.5 -481.8,0 0,-3.5 z"
         inkscape:connector-curvature="0" />
    </clipPath>
    <clipPath
       id="clipPath3069"
       clipPathUnits="userSpaceOnUse">
      <path
         id="path3071"
         clip-rule="evenodd"
         d="m 0,0.1 595.2,0 0,841.8 L 0,841.9 0,0.1 z"
         inkscape:connector-curvature="0" />
    </clipPath>
    <clipPath
       id="clipPath3904"
       clipPathUnits="userSpaceOnUse">
      <path
         id="path3906"
         clip-rule="evenodd"
         d="m 56.7,56.8 481.8,0 0,3.5 -481.8,0 0,-3.5 z"
         inkscape:connector-curvature="0" />
    </clipPath>
    <clipPath
       id="clipPath3886"
       clipPathUnits="userSpaceOnUse">
      <path
         id="path3888"
         clip-rule="evenodd"
         d="m 56.7,781.7 481.8,0 0,3.5 -481.8,0 0,-3.5 z"
         inkscape:connector-curvature="0" />
    </clipPath>
    <clipPath
       id="clipPath3878"
       clipPathUnits="userSpaceOnUse">
      <path
         id="path3880"
         clip-rule="evenodd"
         d="m 0,0.1 595.2,0 0,841.8 L 0,841.9 0,0.1 z"
         inkscape:connector-curvature="0" />
    </clipPath>
    <clipPath
       id="clipPath4409"
       clipPathUnits="userSpaceOnUse">
      <path
         id="path4411"
         clip-rule="evenodd"
         d="m 56.7,56.8 481.8,0 0,3.5 -481.8,0 0,-3.5 z"
         inkscape:connector-curvature="0" />
    </clipPath>
    <clipPath
       id="clipPath4391"
       clipPathUnits="userSpaceOnUse">
      <path
         id="path4393"
         clip-rule="evenodd"
         d="m 56.7,781.7 481.8,0 0,3.5 -481.8,0 0,-3.5 z"
         inkscape:connector-curvature="0" />
    </clipPath>
    <clipPath
       id="clipPath4383"
       clipPathUnits="userSpaceOnUse">
      <path
         id="path4385"
         clip-rule="evenodd"
         d="m 0,0.1 595.2,0 0,841.8 L 0,841.9 0,0.1 z"
         inkscape:connector-curvature="0" />
    </clipPath>
  </defs>
  <sodipodi:namedview
     id="base"
     pagecolor="#ffffff"
     bordercolor="#666666"
     borderopacity="1.0"
     inkscape:pageopacity="0.0"
     inkscape:pageshadow="2"
     inkscape:zoom="0.49497475"
     inkscape:cx="500.26717"
     inkscape:cy="3469.1068"
     inkscape:document-units="px"
     inkscape:current-layer="layer1"
     showgrid="false"
     fit-margin-top="50"
     fit-margin-left="50"
     fit-margin-right="50"
     fit-margin-bottom="50"
     inkscape:window-width="1440"
     inkscape:window-height="880"
     inkscape:window-x="1677"
     inkscape:window-y="-3"
     inkscape:window-maximized="1" />
  <metadata
     id="metadata7">
    <rdf:RDF>
      <cc:Work
         rdf:about="">
        <dc:format>image/svg+xml</dc:format>
        <dc:type
           rdf:resource="http://purl.org/dc/dcmitype/StillImage" />
        <dc:title></dc:title>
      </cc:Work>
    </rdf:RDF>
  </metadata>
  <g
     inkscape:label="Layer 1"
     inkscape:groupmode="layer"
     id="layer1"
     transform="translate(1124.9436,1877.7725)">
    <g
       id="g4551">
      <g
         id="g3872"
         inkscape:label="force_pools"
         transform="matrix(4.478976,0,0,-4.478976,-1328.9015,1665.8288)">
        <g
           id="g3874">
          <g
             id="g3876"
             clip-path="url(#clipPath3878)" />
        </g>
        <g
           id="g3882">
          <g
             id="g3884"
             clip-path="url(#clipPath3886)">
            <g
               id="g3890" />
            <g
               id="g3892" />
            <g
               id="g3898" />
          </g>
        </g>
        <g
           id="g3900">
          <g
             id="g3902"
             clip-path="url(#clipPath3904)">
            <g
               id="g3908" />
            <g
               id="g3910" />
            <g
               id="g3916" />
            <g
               id="g3922" />
          </g>
        </g>
        <path
           inkscape:connector-curvature="0"
           d="m 333.1,765.8 -0.2,-0.3 -276.2,0 0,0.3 0,0.4 276.2,0 0.2,-0.4 z"
           style="fill:#000000;fill-opacity:1;fill-rule:evenodd;stroke:none"
           id="path3924" />
        <path
           inkscape:connector-curvature="0"
           d="m 333.1,744.6 -0.2,-0.4 -276.2,0 0,0.4 0,0.3 276.2,0 0.2,-0.3 z"
           style="fill:#000000;fill-opacity:1;fill-rule:evenodd;stroke:none"
           id="path3926" />
        <path
           inkscape:connector-curvature="0"
           d="m 333.1,723.3 -0.2,-0.4 -276.2,0 0,0.4 0,0.4 276.2,0 0.2,-0.4 z"
           style="fill:#000000;fill-opacity:1;fill-rule:evenodd;stroke:none"
           id="path3928" />
        <path
           inkscape:connector-curvature="0"
           d="m 333.1,702 -0.2,-0.3 -276.2,0 0,0.3 0,0.4 276.2,0 0.2,-0.4 z"
           style="fill:#000000;fill-opacity:1;fill-rule:evenodd;stroke:none"
           id="path3930" />
        <path
           inkscape:connector-curvature="0"
           d="m 333.1,680.8 -0.2,-0.4 -276.2,0 0,0.4 0,0.4 276.2,0 0.2,-0.4 z"
           style="fill:#000000;fill-opacity:1;fill-rule:evenodd;stroke:none"
           id="path3932" />
        <path
           inkscape:connector-curvature="0"
           d="m 333.1,659.5 -0.2,-0.3 -276.2,0 0,0.3 0,0.4 276.2,0 0.2,-0.4 z"
           style="fill:#000000;fill-opacity:1;fill-rule:evenodd;stroke:none"
           id="path3934" />
        <path
           inkscape:connector-curvature="0"
           d="m 333.1,638.3 -0.2,-0.4 -276.2,0 0,0.4 0,0.3 276.2,0 0.2,-0.3 z"
           style="fill:#000000;fill-opacity:1;fill-rule:evenodd;stroke:none"
           id="path3936" />
        <path
           inkscape:connector-curvature="0"
           d="m 333.1,617 -0.2,-0.4 -276.2,0 0,0.4 0,0.4 276.2,0 0.2,-0.4 z"
           style="fill:#000000;fill-opacity:1;fill-rule:evenodd;stroke:none"
           id="path3938" />
        <path
           inkscape:connector-curvature="0"
           d="m 333.1,595.7 -0.2,-0.3 -276.2,0 0,0.3 0,0.4 276.2,0 0.2,-0.4 z"
           style="fill:#000000;fill-opacity:1;fill-rule:evenodd;stroke:none"
           id="path3940" />
        <path
           inkscape:connector-curvature="0"
           d="m 333.1,574.5 -0.2,-0.4 -276.2,0 0,0.4 0,0.4 276.2,0 0.2,-0.4 z"
           style="fill:#000000;fill-opacity:1;fill-rule:evenodd;stroke:none"
           id="path3942" />
        <path
           inkscape:connector-curvature="0"
           d="m 333.1,553.2 -0.2,-0.3 -276.2,0 0,0.3 0,0.4 276.2,0 0.2,-0.4 z"
           style="fill:#000000;fill-opacity:1;fill-rule:evenodd;stroke:none"
           id="path3944" />
        <path
           inkscape:connector-curvature="0"
           d="m 333.1,532 -0.2,-0.4 -276.2,0 0,0.4 0,0.3 276.2,0 0.2,-0.3 z"
           style="fill:#000000;fill-opacity:1;fill-rule:evenodd;stroke:none"
           id="path3946" />
        <path
           inkscape:connector-curvature="0"
           d="m 333.1,510.7 -0.2,-0.4 -276.2,0 0,0.4 0,0.4 276.2,0 0.2,-0.4 z"
           style="fill:#000000;fill-opacity:1;fill-rule:evenodd;stroke:none"
           id="path3948" />
        <path
           inkscape:connector-curvature="0"
           d="m 333.1,489.4 -0.2,-0.3 -276.2,0 0,0.3 0,0.4 276.2,0 0.2,-0.4 z"
           style="fill:#000000;fill-opacity:1;fill-rule:evenodd;stroke:none"
           id="path3950" />
        <path
           inkscape:connector-curvature="0"
           d="m 333.1,468.2 -0.2,-0.4 -276.2,0 0,0.4 0,0.4 276.2,0 0.2,-0.4 z"
           style="fill:#000000;fill-opacity:1;fill-rule:evenodd;stroke:none"
           id="path3952" />
        <path
           inkscape:connector-curvature="0"
           d="m 333.1,446.9 -0.2,-0.3 -276.2,0 0,0.3 0,0.4 276.2,0 0.2,-0.4 z"
           style="fill:#000000;fill-opacity:1;fill-rule:evenodd;stroke:none"
           id="path3954" />
        <path
           inkscape:connector-curvature="0"
           d="m 333.1,425.7 -0.2,-0.4 -276.2,0 0,0.4 0,0.3 276.2,0 0.2,-0.3 z"
           style="fill:#000000;fill-opacity:1;fill-rule:evenodd;stroke:none"
           id="path3956" />
        <path
           inkscape:connector-curvature="0"
           d="m 333.1,404.4 -0.2,-0.4 -276.2,0 0,0.4 0,0.4 276.2,0 0.2,-0.4 z"
           style="fill:#000000;fill-opacity:1;fill-rule:evenodd;stroke:none"
           id="path3958" />
        <path
           inkscape:connector-curvature="0"
           d="m 333.1,383.1 -0.2,-0.3 -276.2,0 0,0.3 0,0.4 276.2,0 0.2,-0.4 z"
           style="fill:#000000;fill-opacity:1;fill-rule:evenodd;stroke:none"
           id="path3960" />
        <path
           inkscape:connector-curvature="0"
           d="m 333.1,361.9 -0.2,-0.4 -276.2,0 0,0.4 0,0.4 276.2,0 0.2,-0.4 z"
           style="fill:#000000;fill-opacity:1;fill-rule:evenodd;stroke:none"
           id="path3962" />
        <path
           inkscape:connector-curvature="0"
           d="m 333.1,340.6 -0.2,-0.3 -276.2,0 0,0.3 0,0.4 276.2,0 0.2,-0.4 z"
           style="fill:#000000;fill-opacity:1;fill-rule:evenodd;stroke:none"
           id="path3964" />
        <path
           inkscape:connector-curvature="0"
           d="m 333.1,319.4 -0.2,-0.4 -276.2,0 0,0.4 0,0.3 276.2,0 0.2,-0.3 z"
           style="fill:#000000;fill-opacity:1;fill-rule:evenodd;stroke:none"
           id="path3966" />
        <path
           inkscape:connector-curvature="0"
           d="m 333.1,298.1 -0.2,-0.4 -276.2,0 0,0.4 0,0.4 276.2,0 0.2,-0.4 z"
           style="fill:#000000;fill-opacity:1;fill-rule:evenodd;stroke:none"
           id="path3968" />
        <path
           inkscape:connector-curvature="0"
           d="m 333.1,276.8 -0.2,-0.3 -276.2,0 0,0.3 0,0.4 276.2,0 0.2,-0.4 z"
           style="fill:#000000;fill-opacity:1;fill-rule:evenodd;stroke:none"
           id="path3970" />
        <path
           inkscape:connector-curvature="0"
           d="m 333.1,255.6 -0.2,-0.4 -276.2,0 0,0.4 0,0.4 276.2,0 0.2,-0.4 z"
           style="fill:#000000;fill-opacity:1;fill-rule:evenodd;stroke:none"
           id="path3972" />
        <path
           inkscape:connector-curvature="0"
           d="m 333.1,234.3 -0.2,-0.3 -276.2,0 0,0.3 0,0.4 276.2,0 0.2,-0.4 z"
           style="fill:#000000;fill-opacity:1;fill-rule:evenodd;stroke:none"
           id="path3974" />
        <path
           inkscape:connector-curvature="0"
           d="m 333.1,213.1 -0.2,-0.4 -276.2,0 0,0.4 0,0.3 276.2,0 0.2,-0.3 z"
           style="fill:#000000;fill-opacity:1;fill-rule:evenodd;stroke:none"
           id="path3976" />
        <path
           inkscape:connector-curvature="0"
           d="m 333.1,191.8 -0.2,-0.4 -276.2,0 0,0.4 0,0.4 276.2,0 0.2,-0.4 z"
           style="fill:#000000;fill-opacity:1;fill-rule:evenodd;stroke:none"
           id="path3978" />
        <path
           inkscape:connector-curvature="0"
           d="m 333.1,170.6 -0.2,-0.4 -276.2,0 0,0.4 0,0.3 276.2,0 0.2,-0.3 z"
           style="fill:#000000;fill-opacity:1;fill-rule:evenodd;stroke:none"
           id="path3980" />
        <path
           inkscape:connector-curvature="0"
           d="m 333.1,149.3 -0.2,-0.4 -276.2,0 0,0.4 0,0.4 276.2,0 0.2,-0.4 z"
           style="fill:#000000;fill-opacity:1;fill-rule:evenodd;stroke:none"
           id="path3982" />
        <path
           inkscape:connector-curvature="0"
           d="m 333.1,128 -0.2,-0.3 -276.2,0 0,0.3 0,0.4 276.2,0 0.2,-0.4 z"
           style="fill:#000000;fill-opacity:1;fill-rule:evenodd;stroke:none"
           id="path3984" />
        <path
           inkscape:connector-curvature="0"
           d="m 333.1,106.8 -0.2,-0.4 -276.2,0 0,0.4 0,0.3 276.2,0 0.2,-0.3 z"
           style="fill:#000000;fill-opacity:1;fill-rule:evenodd;stroke:none"
           id="path3986" />
        <path
           inkscape:connector-curvature="0"
           d="m 333.1,85.5 -0.2,-0.4 -276.2,0 0,0.4 0,0.4 276.2,0 0.2,-0.4 z"
           style="fill:#000000;fill-opacity:1;fill-rule:evenodd;stroke:none"
           id="path3988" />
        <path
           inkscape:connector-curvature="0"
           d="m 333.1,64.3 0.1,-0.4 -276.5,0 0,0.4 0,0.3 276.2,0 0.2,-0.3 z"
           style="fill:#000000;fill-opacity:1;fill-rule:evenodd;stroke:none"
           id="path3990" />
        <path
           inkscape:connector-curvature="0"
           d="m 141.7,780 0.4,0 0,-715.4 -0.4,-0.3 -0.4,0.3 0,715.4 0.4,0 z"
           style="fill:#000000;fill-opacity:1;fill-rule:evenodd;stroke:none"
           id="path3992" />
        <path
           inkscape:connector-curvature="0"
           d="m 163,780 0.1,0 0,-715.4 -0.1,-0.3 -0.1,0.3 0,715.4 0.1,0 z"
           style="fill:#000000;fill-opacity:1;fill-rule:evenodd;stroke:none"
           id="path3994" />
        <path
           inkscape:connector-curvature="0"
           d="m 184.2,780 0.2,0 0,-715.4 -0.2,-0.3 -0.1,0.3 0,715.4 0.1,0 z"
           style="fill:#000000;fill-opacity:1;fill-rule:evenodd;stroke:none"
           id="path3996" />
        <path
           inkscape:connector-curvature="0"
           d="m 205.5,780 0.1,0 0,-715.4 -0.1,-0.3 -0.1,0.3 0,715.4 0.1,0 z"
           style="fill:#000000;fill-opacity:1;fill-rule:evenodd;stroke:none"
           id="path3998" />
        <path
           inkscape:connector-curvature="0"
           d="m 226.8,780 0.1,0 0,-715.4 -0.1,-0.3 -0.2,0.3 0,715.4 0.2,0 z"
           style="fill:#000000;fill-opacity:1;fill-rule:evenodd;stroke:none"
           id="path4000" />
        <path
           inkscape:connector-curvature="0"
           d="m 248,780 0.2,0 0,-715.4 -0.2,-0.3 -0.1,0.3 0,715.4 0.1,0 z"
           style="fill:#000000;fill-opacity:1;fill-rule:evenodd;stroke:none"
           id="path4002" />
        <path
           inkscape:connector-curvature="0"
           d="m 269.3,780 0.1,0 0,-715.4 -0.1,-0.3 -0.1,0.3 0,715.4 0.1,0 z"
           style="fill:#000000;fill-opacity:1;fill-rule:evenodd;stroke:none"
           id="path4004" />
        <path
           inkscape:connector-curvature="0"
           d="m 290.5,780 0.2,0 0,-715.4 -0.2,-0.3 -0.1,0.3 0,715.4 0.1,0 z"
           style="fill:#000000;fill-opacity:1;fill-rule:evenodd;stroke:none"
           id="path4006" />
        <path
           inkscape:connector-curvature="0"
           d="m 311.8,780 0.1,0 0,-715.4 -0.1,-0.3 -0.1,0.3 0,715.4 0.1,0 z"
           style="fill:#000000;fill-opacity:1;fill-rule:evenodd;stroke:none"
           id="path4008" />
        <path
           inkscape:connector-curvature="0"
           d="m 333.1,780 0.1,0 0,-716 -0.1,0 0,0.3 -0.2,0.3 0,715.4 0.2,0 z"
           style="fill:#000000;fill-opacity:1;fill-rule:evenodd;stroke:none"
           id="path4010" />
        <text
           transform="matrix(1,0,0,-1,144.7,771.2)"
           id="text4012">
          <tspan
             style="font-size:5px;font-variant:normal;font-weight:bold;writing-mode:lr-tb;fill:#000000;fill-opacity:1;fill-rule:nonzero;stroke:none;font-family:Georgia;-inkscape-font-specification:Georgia-Bold"
             x="0 3.5 5.9000001 9.1000004 12.2"
             y="0"
             sodipodi:role="line"
             id="tspan4014">&lt;1939</tspan>
        </text>
        <text
           transform="matrix(1,0,0,-1,167.7,771.2)"
           id="text4016">
          <tspan
             style="font-size:5px;font-variant:normal;font-weight:bold;writing-mode:lr-tb;fill:#000000;fill-opacity:1;fill-rule:nonzero;stroke:none;font-family:Georgia;-inkscape-font-specification:Georgia-Bold"
             x="0 2.4000001 5.5999999 8.6999998"
             y="0"
             sodipodi:role="line"
             id="tspan4018">1939</tspan>
        </text>
        <text
           transform="matrix(1,0,0,-1,188.7,771.2)"
           id="text4020">
          <tspan
             style="font-size:5px;font-variant:normal;font-weight:bold;writing-mode:lr-tb;fill:#000000;fill-opacity:1;fill-rule:nonzero;stroke:none;font-family:Georgia;-inkscape-font-specification:Georgia-Bold"
             x="0 2.4000001 5.5999999 8.8000002"
             y="0"
             sodipodi:role="line"
             id="tspan4022">1940</tspan>
        </text>
        <text
           transform="matrix(1,0,0,-1,210.5,771.2)"
           id="text4024">
          <tspan
             style="font-size:5px;font-variant:normal;font-weight:bold;writing-mode:lr-tb;fill:#000000;fill-opacity:1;fill-rule:nonzero;stroke:none;font-family:Georgia;-inkscape-font-specification:Georgia-Bold"
             x="0 2.4000001 5.5999999 8.8000002"
             y="0"
             sodipodi:role="line"
             id="tspan4026">1941</tspan>
        </text>
        <text
           transform="matrix(1,0,0,-1,231.4,771.2)"
           id="text4028">
          <tspan
             style="font-size:5px;font-variant:normal;font-weight:bold;writing-mode:lr-tb;fill:#000000;fill-opacity:1;fill-rule:nonzero;stroke:none;font-family:Georgia;-inkscape-font-specification:Georgia-Bold"
             x="0 2.4000001 5.5999999 8.8000002"
             y="0"
             sodipodi:role="line"
             id="tspan4030">1942</tspan>
        </text>
        <text
           transform="matrix(1,0,0,-1,252.7,771.2)"
           id="text4032">
          <tspan
             style="font-size:5px;font-variant:normal;font-weight:bold;writing-mode:lr-tb;fill:#000000;fill-opacity:1;fill-rule:nonzero;stroke:none;font-family:Georgia;-inkscape-font-specification:Georgia-Bold"
             x="0 2.4000001 5.5999999 8.8000002"
             y="0"
             sodipodi:role="line"
             id="tspan4034">1943</tspan>
        </text>
        <text
           transform="matrix(1,0,0,-1,273.9,771.2)"
           id="text4036">
          <tspan
             style="font-size:5px;font-variant:normal;font-weight:bold;writing-mode:lr-tb;fill:#000000;fill-opacity:1;fill-rule:nonzero;stroke:none;font-family:Georgia;-inkscape-font-specification:Georgia-Bold"
             x="0 2.4000001 5.5999999 8.8000002"
             y="0"
             sodipodi:role="line"
             id="tspan4038">1944</tspan>
        </text>
        <text
           transform="matrix(1,0,0,-1,295.3,771.2)"
           id="text4040">
          <tspan
             style="font-size:5px;font-variant:normal;font-weight:bold;writing-mode:lr-tb;fill:#000000;fill-opacity:1;fill-rule:nonzero;stroke:none;font-family:Georgia;-inkscape-font-specification:Georgia-Bold"
             x="0 2.4000001 5.5999999 8.8000002"
             y="0"
             sodipodi:role="line"
             id="tspan4042">1945</tspan>
        </text>
        <text
           transform="matrix(1,0,0,-1,314.8,771.2)"
           id="text4044">
          <tspan
             style="font-size:5px;font-variant:normal;font-weight:bold;writing-mode:lr-tb;fill:#000000;fill-opacity:1;fill-rule:nonzero;stroke:none;font-family:Georgia;-inkscape-font-specification:Georgia-Bold"
             x="0 3.5 5.9000001 9.1000004 12.3"
             y="0"
             sodipodi:role="line"
             id="tspan4046">&gt;1945</tspan>
        </text>
        <text
           transform="matrix(1,0,0,-1,57.2,760.7)"
           id="text4048">
          <tspan
             style="font-size:5px;font-variant:normal;font-weight:bold;writing-mode:lr-tb;fill:#000000;fill-opacity:1;fill-rule:nonzero;stroke:none;font-family:Georgia;-inkscape-font-specification:Georgia-Bold"
             x="0 3.7950001 5.79 8.6850004 12.08 15.075 18.57 20.365 22.959999 24.955 27.950001"
             y="0"
             sodipodi:role="line"
             id="tspan4050">Afghanistan</tspan>
        </text>
        <text
           transform="matrix(1,0,0,-1,57.2,569.4)"
           id="text4052">
          <tspan
             style="font-size:5px;font-variant:normal;font-weight:bold;writing-mode:lr-tb;fill:#000000;fill-opacity:1;fill-rule:nonzero;stroke:none;font-family:Georgia;-inkscape-font-specification:Georgia-Bold"
             x="0 3.595 6.9899998 8.7849998 10.485"
             y="0"
             sodipodi:role="line"
             id="tspan4054">Chile</tspan>
        </text>
        <text
           transform="matrix(1,0,0,-1,57.2,484.3)"
           id="text4056">
          <tspan
             style="font-size:5px;font-variant:normal;font-weight:bold;writing-mode:lr-tb;fill:#000000;fill-opacity:1;fill-rule:nonzero;stroke:none;font-family:Georgia;-inkscape-font-specification:Georgia-Bold"
             x="0 3.5999999 6.2950001 9.6899996 12.685 15.985 19.18"
             y="0"
             sodipodi:role="line"
             id="tspan4058">Ecuador</tspan>
        </text>
        <text
           transform="matrix(1,0,0,-1,57.2,314.3)"
           id="text4060">
          <tspan
             style="font-size:5px;font-variant:normal;font-weight:bold;writing-mode:lr-tb;fill:#000000;fill-opacity:1;fill-rule:nonzero;stroke:none;font-family:Georgia;-inkscape-font-specification:Georgia-Bold"
             x="0 3.4000001 5.1950002 8.3950005 11.29 13.89 15.685"
             y="0"
             sodipodi:role="line"
             id="tspan4062">Liberia</tspan>
        </text>
        <text
           transform="matrix(1,0,0,-1,57.2,229.2)"
           id="text4064">
          <tspan
             style="font-size:5px;font-variant:normal;font-weight:bold;writing-mode:lr-tb;fill:#000000;fill-opacity:1;fill-rule:nonzero;stroke:none;font-family:Georgia;-inkscape-font-specification:Georgia-Bold"
             x="0 3.5 6.4949999 9.0950003 12.09 14.985 18.379999 21.375"
             y="0"
             sodipodi:role="line"
             id="tspan4066">Paraguay</tspan>
        </text>
        <text
           transform="matrix(1,0,0,-1,57.2,186.7)"
           id="text4068">
          <tspan
             style="font-size:5px;font-variant:normal;font-weight:bold;writing-mode:lr-tb;fill:#000000;fill-opacity:1;fill-rule:nonzero;stroke:none;font-family:Georgia;-inkscape-font-specification:Georgia-Bold"
             x="0 3.5 6.395 8.9949999"
             y="0"
             sodipodi:role="line"
             id="tspan4070">Peru</tspan>
        </text>
        <text
           transform="matrix(1,0,0,-1,57.2,144.2)"
           id="text4072">
          <tspan
             style="font-size:5px;font-variant:normal;font-weight:bold;writing-mode:lr-tb;fill:#000000;fill-opacity:1;fill-rule:nonzero;stroke:none;font-family:Georgia;-inkscape-font-specification:Georgia-Bold"
             x="0 3.5 6.6950002 9.2950001 11.29 14.685 17.58 20.575001"
             y="0"
             sodipodi:role="line"
             id="tspan4074">Portugal</tspan>
        </text>
        <text
           transform="matrix(1,0,0,-1,57.2,739.5)"
           id="text4076">
          <tspan
             style="font-size:5px;font-variant:normal;font-weight:bold;writing-mode:lr-tb;fill:#000000;fill-opacity:1;fill-rule:nonzero;stroke:none;font-family:Georgia;-inkscape-font-specification:Georgia-Bold"
             x="0 3.7950001 6.395 9.3900003 12.59 14.385"
             y="0"
             sodipodi:role="line"
             id="tspan4078">Arabia</tspan>
        </text>
        <text
           transform="matrix(1,0,0,-1,57.2,718.2)"
           id="text4080">
          <tspan
             style="font-size:5px;font-variant:normal;font-weight:bold;writing-mode:lr-tb;fill:#000000;fill-opacity:1;fill-rule:nonzero;stroke:none;font-family:Georgia;-inkscape-font-specification:Georgia-Bold"
             x="0 3.7950001 6.395 9.29 12.09 15.585 17.58 19.280001 22.775"
             y="0"
             sodipodi:role="line"
             id="tspan4082">Argentina</tspan>
        </text>
        <text
           transform="matrix(1,0,0,-1,57.2,697)"
           id="text4084">
          <tspan
             style="font-size:5px;font-variant:normal;font-weight:bold;writing-mode:lr-tb;fill:#000000;fill-opacity:1;fill-rule:nonzero;stroke:none;font-family:Georgia;-inkscape-font-specification:Georgia-Bold"
             x="0 3.7950001 7.1900001 9.6899996 11.685 14.285 16.08"
             y="0"
             sodipodi:role="line"
             id="tspan4086">Austria</tspan>
        </text>
        <text
           transform="matrix(1,0,0,-1,57.2,675.7)"
           id="text4088">
          <tspan
             style="font-size:5px;font-variant:normal;font-weight:bold;writing-mode:lr-tb;fill:#000000;fill-opacity:1;fill-rule:nonzero;stroke:none;font-family:Georgia;-inkscape-font-specification:Georgia-Bold"
             x="0 3.7950001 6.5949998 8.2950001 11.19 12.985 16.379999"
             y="0"
             sodipodi:role="line"
             id="tspan4090">Belgium</tspan>
        </text>
        <text
           transform="matrix(1,0,0,-1,57.2,654.4)"
           id="text4092">
          <tspan
             style="font-size:5px;font-variant:normal;font-weight:bold;writing-mode:lr-tb;fill:#000000;fill-opacity:1;fill-rule:nonzero;stroke:none;font-family:Georgia;-inkscape-font-specification:Georgia-Bold"
             x="0 3.7950001 6.895 8.6899996 10.39 13.285 14.985"
             y="0"
             sodipodi:role="line"
             id="tspan4094">Bolivia</tspan>
        </text>
        <text
           transform="matrix(1,0,0,-1,57.2,633.2)"
           id="text4096">
          <tspan
             style="font-size:5px;font-variant:normal;font-weight:bold;writing-mode:lr-tb;fill:#000000;fill-opacity:1;fill-rule:nonzero;stroke:none;font-family:Georgia;-inkscape-font-specification:Georgia-Bold"
             x="0 3.7950001 6.395 9.2950001 11.99 13.69"
             y="0"
             sodipodi:role="line"
             id="tspan4098">Brazil</tspan>
        </text>
        <text
           transform="matrix(1,0,0,-1,57.2,611.9)"
           id="text4100">
          <tspan
             style="font-size:5px;font-variant:normal;font-weight:bold;writing-mode:lr-tb;fill:#000000;fill-opacity:1;fill-rule:nonzero;stroke:none;font-family:Georgia;-inkscape-font-specification:Georgia-Bold"
             x="0 3.7950001 7.0949998 8.8900003 11.69 14.685 17.285 19.08"
             y="0"
             sodipodi:role="line"
             id="tspan4102">Bulgaria</tspan>
        </text>
        <text
           transform="matrix(1,0,0,-1,57.2,590.7)"
           id="text4104">
          <tspan
             style="font-size:5px;font-variant:normal;font-weight:bold;writing-mode:lr-tb;fill:#000000;fill-opacity:1;fill-rule:nonzero;stroke:none;font-family:Georgia;-inkscape-font-specification:Georgia-Bold"
             x="0 3.595 6.395 9.8900003 11.885 13.485 14.78 18.575001 23.67 26.469999 29.07 30.865 33.465"
             y="0"
             sodipodi:role="line"
             id="tspan4106">Cent. America</tspan>
        </text>
        <text
           transform="matrix(1,0,0,-1,57.2,548.1)"
           id="text4108">
          <tspan
             style="font-size:5px;font-variant:normal;font-weight:bold;writing-mode:lr-tb;fill:#000000;fill-opacity:1;fill-rule:nonzero;stroke:none;font-family:Georgia;-inkscape-font-specification:Georgia-Bold"
             x="0 3.595 6.6950002 8.4899998 11.59 16.684999 19.885 21.68"
             y="0"
             sodipodi:role="line"
             id="tspan4110">Colombia</tspan>
        </text>
        <text
           transform="matrix(1,0,0,-1,57.2,526.9)"
           id="text4112">
          <tspan
             style="font-size:5px;font-variant:normal;font-weight:bold;writing-mode:lr-tb;fill:#000000;fill-opacity:1;fill-rule:nonzero;stroke:none;font-family:Georgia;-inkscape-font-specification:Georgia-Bold"
             x="0 3.595 6.1950002 8.9949999 11.69 15.085 18.280001 20.780001 22.575001 25.674999 28.57 31.469999 34.665001 36.459999"
             y="0"
             sodipodi:role="line"
             id="tspan4114">Czechoslovakia</tspan>
        </text>
        <text
           transform="matrix(1,0,0,-1,57.2,505.6)"
           id="text4116">
          <tspan
             style="font-size:5px;font-variant:normal;font-weight:bold;writing-mode:lr-tb;fill:#000000;fill-opacity:1;fill-rule:nonzero;stroke:none;font-family:Georgia;-inkscape-font-specification:Georgia-Bold"
             x="0 4.1950002 6.9949999 10.49 15.49 18.485001 21.084999"
             y="0"
             sodipodi:role="line"
             id="tspan4118">Denmark</tspan>
        </text>
        <text
           transform="matrix(1,0,0,-1,57.2,463.1)"
           id="text4120">
          <tspan
             style="font-size:5px;font-variant:normal;font-weight:bold;writing-mode:lr-tb;fill:#000000;fill-opacity:1;fill-rule:nonzero;stroke:none;font-family:Georgia;-inkscape-font-specification:Georgia-Bold"
             x="0 3.5999999 6.1950002 8.1899996 11.29 14.785 16.58"
             y="0"
             sodipodi:role="line"
             id="tspan4122">Estonia</tspan>
        </text>
        <text
           transform="matrix(1,0,0,-1,57.2,441.8)"
           id="text4124">
          <tspan
             style="font-size:5px;font-variant:normal;font-weight:bold;writing-mode:lr-tb;fill:#000000;fill-opacity:1;fill-rule:nonzero;stroke:none;font-family:Georgia;-inkscape-font-specification:Georgia-Bold"
             x="0 3.5999999 5.5949998 8.9899998 10.785 13.885 17.18 18.975"
             y="0"
             sodipodi:role="line"
             id="tspan4126">Ethiopia</tspan>
        </text>
        <text
           transform="matrix(1,0,0,-1,57.2,420.6)"
           id="text4128">
          <tspan
             style="font-size:5px;font-variant:normal;font-weight:bold;writing-mode:lr-tb;fill:#000000;fill-opacity:1;fill-rule:nonzero;stroke:none;font-family:Georgia;-inkscape-font-specification:Georgia-Bold"
             x="0 3.3 5.0949998 8.5900002 10.29 13.285 16.684999"
             y="0"
             sodipodi:role="line"
             id="tspan4130">Finland</tspan>
        </text>
        <text
           transform="matrix(1,0,0,-1,57.2,399.3)"
           id="text4132">
          <tspan
             style="font-size:5px;font-variant:normal;font-weight:bold;writing-mode:lr-tb;fill:#000000;fill-opacity:1;fill-rule:nonzero;stroke:none;font-family:Georgia;-inkscape-font-specification:Georgia-Bold"
             x="0 4 6.5999999 9.4949999 12.295 14.99"
             y="0"
             sodipodi:role="line"
             id="tspan4134">Greece</tspan>
        </text>
        <text
           transform="matrix(1,0,0,-1,57.2,378.1)"
           id="text4136">
          <tspan
             style="font-size:5px;font-variant:normal;font-weight:bold;writing-mode:lr-tb;fill:#000000;fill-opacity:1;fill-rule:nonzero;stroke:none;font-family:Georgia;-inkscape-font-specification:Georgia-Bold"
             x="0 4.5949998 7.895 11.39 14.285 17.184999 19.785"
             y="0"
             sodipodi:role="line"
             id="tspan4138">Hungary</tspan>
        </text>
        <text
           transform="matrix(1,0,0,-1,57.2,356.8)"
           id="text4140">
          <tspan
             style="font-size:5px;font-variant:normal;font-weight:bold;writing-mode:lr-tb;fill:#000000;fill-opacity:1;fill-rule:nonzero;stroke:none;font-family:Georgia;-inkscape-font-specification:Georgia-Bold"
             x="0 2.2 4.8000002 7.7950001"
             y="0"
             sodipodi:role="line"
             id="tspan4142">Iraq</tspan>
        </text>
        <text
           transform="matrix(1,0,0,-1,57.2,335.5)"
           id="text4144">
          <tspan
             style="font-size:5px;font-variant:normal;font-weight:bold;writing-mode:lr-tb;fill:#000000;fill-opacity:1;fill-rule:nonzero;stroke:none;font-family:Georgia;-inkscape-font-specification:Georgia-Bold"
             x="0 2.2 4.8000002 7.6950002 9.3950005 12.39 15.79"
             y="0"
             sodipodi:role="line"
             id="tspan4146">Ireland</tspan>
        </text>
        <text
           transform="matrix(1,0,0,-1,57.2,293)"
           id="text4148">
          <tspan
             style="font-size:5px;font-variant:normal;font-weight:bold;writing-mode:lr-tb;fill:#000000;fill-opacity:1;fill-rule:nonzero;stroke:none;font-family:Georgia;-inkscape-font-specification:Georgia-Bold"
             x="0 5.0999999 7.9949999 10.895 12.69 15.29"
             y="0"
             sodipodi:role="line"
             id="tspan4150">Mexico</tspan>
        </text>
        <text
           transform="matrix(1,0,0,-1,57.2,271.8)"
           id="text4152">
          <tspan
             style="font-size:5px;font-variant:normal;font-weight:bold;writing-mode:lr-tb;fill:#000000;fill-opacity:1;fill-rule:nonzero;stroke:none;font-family:Georgia;-inkscape-font-specification:Georgia-Bold"
             x="0 4.1950002 6.9949999 8.9899998 12.385 15.28 17.879999 19.58 22.575001 25.975 29.370001"
             y="0"
             sodipodi:role="line"
             id="tspan4154">Netherlands</tspan>
        </text>
        <text
           transform="matrix(1,0,0,-1,57.2,250.5)"
           id="text4156">
          <tspan
             style="font-size:5px;font-variant:normal;font-weight:bold;writing-mode:lr-tb;fill:#000000;fill-opacity:1;fill-rule:nonzero;stroke:none;font-family:Georgia;-inkscape-font-specification:Georgia-Bold"
             x="0 4.1950002 7.3899999 9.9899998 14.29 17.285"
             y="0"
             sodipodi:role="line"
             id="tspan4158">Norway</tspan>
        </text>
        <text
           transform="matrix(1,0,0,-1,57.2,208)"
           id="text4160">
          <tspan
             style="font-size:5px;font-variant:normal;font-weight:bold;writing-mode:lr-tb;fill:#000000;fill-opacity:1;fill-rule:nonzero;stroke:none;font-family:Georgia;-inkscape-font-specification:Georgia-Bold"
             x="0 3.5 6.3000002 8.8999996 11.495 13.29"
             y="0"
             sodipodi:role="line"
             id="tspan4162">Persia</tspan>
        </text>
        <text
           transform="matrix(1,0,0,-1,57.2,165.5)"
           id="text4164">
          <tspan
             style="font-size:5px;font-variant:normal;font-weight:bold;writing-mode:lr-tb;fill:#000000;fill-opacity:1;fill-rule:nonzero;stroke:none;font-family:Georgia;-inkscape-font-specification:Georgia-Bold"
             x="0 3.5 6.6950002 8.3950005 11.39 14.79"
             y="0"
             sodipodi:role="line"
             id="tspan4166">Poland</tspan>
        </text>
        <text
           transform="matrix(1,0,0,-1,57.2,122.9)"
           id="text4168">
          <tspan
             style="font-size:5px;font-variant:normal;font-weight:bold;writing-mode:lr-tb;fill:#000000;fill-opacity:1;fill-rule:nonzero;stroke:none;font-family:Georgia;-inkscape-font-specification:Georgia-Bold"
             x="0 3.9949999 7.2950001 12.39 15.385 18.785 20.58"
             y="0"
             sodipodi:role="line"
             id="tspan4170">Rumania</tspan>
        </text>
        <text
           transform="matrix(1,0,0,-1,57.2,101.7)"
           id="text4172">
          <tspan
             style="font-size:5px;font-variant:normal;font-weight:bold;writing-mode:lr-tb;fill:#000000;fill-opacity:1;fill-rule:nonzero;stroke:none;font-family:Georgia;-inkscape-font-specification:Georgia-Bold"
             x="0 3.2 4.9949999 7.9899998"
             y="0"
             sodipodi:role="line"
             id="tspan4174">Siam</tspan>
        </text>
        <text
           transform="matrix(1,0,0,-1,57.2,80.4)"
           id="text4176">
          <tspan
             style="font-size:5px;font-variant:normal;font-weight:bold;writing-mode:lr-tb;fill:#000000;fill-opacity:1;fill-rule:nonzero;stroke:none;font-family:Georgia;-inkscape-font-specification:Georgia-Bold"
             x="0 3.2 6.4949999 9.4899998 11.285"
             y="0"
             sodipodi:role="line"
             id="tspan4178">Spain</tspan>
        </text>
      </g>
      <g
         id="g4377"
         inkscape:label="force_pools"
         transform="matrix(4.478976,0,0,-4.478976,-1328.9015,4871.2372)">
        <g
           id="g4379">
          <g
             id="g4381"
             clip-path="url(#clipPath4383)" />
        </g>
        <g
           id="g4387">
          <g
             id="g4389"
             clip-path="url(#clipPath4391)">
            <g
               id="g4395" />
            <g
               id="g4397" />
            <g
               id="g4403" />
          </g>
        </g>
        <g
           id="g4405">
          <g
             id="g4407"
             clip-path="url(#clipPath4409)">
            <g
               id="g4413" />
            <g
               id="g4415" />
            <g
               id="g4421" />
            <g
               id="g4427" />
          </g>
        </g>
        <path
           inkscape:connector-curvature="0"
           d="m 333.1,758.7 -0.2,-0.3 -276.2,0 0,0.3 0,0.4 276.2,0 0.2,-0.4 z"
           style="fill:#000000;fill-opacity:1;fill-rule:evenodd;stroke:none"
           id="path4431" />
        <path
           inkscape:connector-curvature="0"
           d="m 333.1,737.5 -0.2,-0.4 -276.2,0 0,0.4 0,0.4 276.2,0 0.2,-0.4 z"
           style="fill:#000000;fill-opacity:1;fill-rule:evenodd;stroke:none"
           id="path4433" />
        <path
           inkscape:connector-curvature="0"
           d="m 333.1,716.2 -0.2,-0.4 -276.2,0 0,0.4 0,0.4 276.2,0 0.2,-0.4 z"
           style="fill:#000000;fill-opacity:1;fill-rule:evenodd;stroke:none"
           id="path4435" />
        <path
           inkscape:connector-curvature="0"
           d="m 333.1,695 -0.2,-0.4 -276.2,0 0,0.4 0,0.3 276.2,0 0.2,-0.3 z"
           style="fill:#000000;fill-opacity:1;fill-rule:evenodd;stroke:none"
           id="path4437" />
        <path
           inkscape:connector-curvature="0"
           d="m 333.1,673.7 -0.2,-0.4 -276.2,0 0,0.4 0,0.4 276.2,0 0.2,-0.4 z"
           style="fill:#000000;fill-opacity:1;fill-rule:evenodd;stroke:none"
           id="path4439" />
        <path
           inkscape:connector-curvature="0"
           d="m 333.1,652.4 -0.2,-0.3 -276.2,0 0,0.3 0,0.4 276.2,0 0.2,-0.4 z"
           style="fill:#000000;fill-opacity:1;fill-rule:evenodd;stroke:none"
           id="path4441" />
        <path
           inkscape:connector-curvature="0"
           d="m 333.1,631.2 0.1,-0.4 -276.5,0 0,0.4 0,0.4 276.2,0 0.2,-0.4 z"
           style="fill:#000000;fill-opacity:1;fill-rule:evenodd;stroke:none"
           id="path4443" />
        <path
           inkscape:connector-curvature="0"
           d="m 141.7,780 0.4,-0.4 0,-148 -0.4,-0.4 -0.4,0.4 0,148 0.4,0.4 z"
           style="fill:#000000;fill-opacity:1;fill-rule:evenodd;stroke:none"
           id="path4445" />
        <path
           inkscape:connector-curvature="0"
           d="m 163,780 0.1,-0.4 0,-148 -0.1,-0.4 -0.1,0.4 0,148 0.1,0.4 z"
           style="fill:#000000;fill-opacity:1;fill-rule:evenodd;stroke:none"
           id="path4447" />
        <path
           inkscape:connector-curvature="0"
           d="m 184.2,780 0.2,-0.4 0,-148 -0.2,-0.4 -0.1,0.4 0,148 0.1,0.4 z"
           style="fill:#000000;fill-opacity:1;fill-rule:evenodd;stroke:none"
           id="path4449" />
        <path
           inkscape:connector-curvature="0"
           d="m 205.5,780 0.1,-0.4 0,-148 -0.1,-0.4 -0.1,0.4 0,148 0.1,0.4 z"
           style="fill:#000000;fill-opacity:1;fill-rule:evenodd;stroke:none"
           id="path4451" />
        <path
           inkscape:connector-curvature="0"
           d="m 226.8,780 0.1,-0.4 0,-148 -0.1,-0.4 -0.2,0.4 0,148 0.2,0.4 z"
           style="fill:#000000;fill-opacity:1;fill-rule:evenodd;stroke:none"
           id="path4453" />
        <path
           inkscape:connector-curvature="0"
           d="m 248,780 0.2,-0.4 0,-148 -0.2,-0.4 -0.1,0.4 0,148 0.1,0.4 z"
           style="fill:#000000;fill-opacity:1;fill-rule:evenodd;stroke:none"
           id="path4455" />
        <path
           inkscape:connector-curvature="0"
           d="m 269.3,780 0.1,-0.4 0,-148 -0.1,-0.4 -0.1,0.4 0,148 0.1,0.4 z"
           style="fill:#000000;fill-opacity:1;fill-rule:evenodd;stroke:none"
           id="path4457" />
        <path
           inkscape:connector-curvature="0"
           d="m 290.5,780 0.2,-0.4 0,-148 -0.2,-0.4 -0.1,0.4 0,148 0.1,0.4 z"
           style="fill:#000000;fill-opacity:1;fill-rule:evenodd;stroke:none"
           id="path4459" />
        <path
           inkscape:connector-curvature="0"
           d="m 311.8,780 0.1,-0.4 0,-148 -0.1,-0.4 -0.1,0.4 0,148 0.1,0.4 z"
           style="fill:#000000;fill-opacity:1;fill-rule:evenodd;stroke:none"
           id="path4461" />
        <path
           inkscape:connector-curvature="0"
           d="m 333.1,780 0,0.2 0.1,0 0,-149.3 -0.1,0 0,0.3 -0.2,0.4 0,148 0.2,0.4 z"
           style="fill:#000000;fill-opacity:1;fill-rule:evenodd;stroke:none"
           id="path4463" />
        <text
           transform="matrix(1,0,0,-1,57.2,711.1)"
           id="text4465">
          <tspan
             style="font-size:5px;font-variant:normal;font-weight:bold;writing-mode:lr-tb;fill:#000000;fill-opacity:1;fill-rule:nonzero;stroke:none;font-family:Georgia;-inkscape-font-specification:Georgia-Bold"
             x="0 4.1950002 7.3899999 9.9899998 12.985 14.78 18.275"
             y="0"
             sodipodi:role="line"
             id="tspan4467">Ukraine</tspan>
        </text>
        <text
           transform="matrix(1,0,0,-1,57.2,689.9)"
           id="text4469">
          <tspan
             style="font-size:5px;font-variant:normal;font-weight:bold;writing-mode:lr-tb;fill:#000000;fill-opacity:1;fill-rule:nonzero;stroke:none;font-family:Georgia;-inkscape-font-specification:Georgia-Bold"
             x="0 4.1950002 6.7950001 10.19 13.085 16.48 19.475"
             y="0"
             sodipodi:role="line"
             id="tspan4471">Uruguay</tspan>
        </text>
        <text
           transform="matrix(1,0,0,-1,57.2,668.6)"
           id="text4473">
          <tspan
             style="font-size:5px;font-variant:normal;font-weight:bold;writing-mode:lr-tb;fill:#000000;fill-opacity:1;fill-rule:nonzero;stroke:none;font-family:Georgia;-inkscape-font-specification:Georgia-Bold"
             x="0 3.8 6.6950002 10.19 13.085 15.685 19.08 21.975 23.674999"
             y="0"
             sodipodi:role="line"
             id="tspan4475">Venezuela</tspan>
        </text>
        <text
           transform="matrix(1,0,0,-1,57.2,774.9)"
           id="text4477">
          <tspan
             style="font-size:5px;font-variant:normal;font-weight:bold;writing-mode:lr-tb;fill:#000000;fill-opacity:1;fill-rule:nonzero;stroke:none;font-family:Georgia;-inkscape-font-specification:Georgia-Bold"
             x="0 3.2 7.5949998 10.395 13.695 16.59"
             y="0"
             sodipodi:role="line"
             id="tspan4479">Sweden</tspan>
        </text>
        <text
           transform="matrix(1,0,0,-1,57.2,753.7)"
           id="text4481">
          <tspan
             style="font-size:5px;font-variant:normal;font-weight:bold;writing-mode:lr-tb;fill:#000000;fill-opacity:1;fill-rule:nonzero;stroke:none;font-family:Georgia;-inkscape-font-specification:Georgia-Bold"
             x="0 3.2 7.5949998 9.2950001 11.29 13.985 16.785 19.385 21.084999 24.08 27.575001"
             y="0"
             sodipodi:role="line"
             id="tspan4483">Switzerland</tspan>
        </text>
        <text
           transform="matrix(1,0,0,-1,57.2,732.4)"
           id="text4485">
          <tspan
             style="font-size:5px;font-variant:normal;font-weight:bold;writing-mode:lr-tb;fill:#000000;fill-opacity:1;fill-rule:nonzero;stroke:none;font-family:Georgia;-inkscape-font-specification:Georgia-Bold"
             x="0 3.4000001 6.7950001 9.3950005 12.495 15.39"
             y="0"
             sodipodi:role="line"
             id="tspan4487">Turkey</tspan>
        </text>
        <text
           transform="matrix(1,0,0,-1,57.2,647.4)"
           id="text4489">
          <tspan
             style="font-size:5px;font-variant:normal;font-weight:bold;writing-mode:lr-tb;fill:#000000;fill-opacity:1;fill-rule:nonzero;stroke:none;font-family:Georgia;-inkscape-font-specification:Georgia-Bold"
             x="0 3.5999999 6.9949999 9.8900003 13.085 15.585 17.379999 20.280001 23.174999 24.875"
             y="0"
             sodipodi:role="line"
             id="tspan4491">Yugoslavia</tspan>
        </text>
      </g>
    </g>
  </g>
</svg>
